<svg xmlns="http://www.w3.org/2000/svg" viewBox="0 0 480 157.2"><path fill="#00A23A" d="M417.722 44.513 462.269-.035l17.819 17.82-44.547 44.547zm-.072 47.436L462.199 47.4l17.819 17.82-44.547 44.547zm-.04 47.428 44.547-44.548 17.819 17.82-44.548 44.546z"/><path d="M1.6 114.7c-.3-1.1-1-3.2-1.6-4.5 1.1-.3 2-1.4 3.2-3.2 1.2-1.6 5.2-8.2 7.4-14.4l4.9 2.1c-2.4 5.1-5.5 10.5-8.6 14.8l6-.5c1.3-1.7 2.4-3.6 3.4-5.5l4.3 2.8c-3.4 5.3-7.4 10.7-11.6 15.1l10.4-1.5.2 4.3L2 127.5c-.3-.9-1-3.3-1.6-4.6 1.3-.3 2.5-1.4 4.3-3.4.9-.8 2.8-3 5-5.9l-8.1 1.1zm-1.3 19c4.7-.8 11.8-2.3 18.5-3.8l.5 4.6c-6.4 1.5-13 3-18.2 4.1l-.8-4.9zm48.4-.6v4.9H19.9v-4.9h11.6v-30.7H20.7v-4.9h26.9v4.9H36.9v30.7h11.8zm63-5.8c3.8-4.4 7.5-12 9.4-18.9H113v-4.6h8.7v-11h4.8v11h8v4.6h-8v1.9c1.7 1.7 6.9 7.4 8.1 8.9l-3.1 4.1c-1.1-1.7-3.1-4.6-5-7.1v25h-4.8v-23.4c-2.1 5.6-4.7 10.8-7.5 14.2l-2.5-4.7zm21.3 10.2c9.3-3.1 17.9-8.9 22.4-16l4.9 2c-5.4 8-14.1 14.1-24.1 17.9l-3.2-3.9zm2-31.7c6-2.9 13-7.8 16.7-12.7l4.8 2c-4.5 5.7-11.4 10.9-18 14.3l-3.5-3.6zm.5 14.8c6.8-2.9 14.1-8.1 18.1-13.7l4.8 2c-4.7 6.3-12.1 11.9-19.4 15.4l-3.5-3.7zM269.6 102v28.4h-5.1v-2.9h-13.7v13.7h-5.1v-13.7H232v3.1h-4.9V102h18.6v-9.1h5.1v9.2l18.8-.1zm-24 20.7v-15.9H232v15.9h13.6zm18.9 0v-15.9h-13.7v15.9h13.7zM382 95.1v46.2h-5.2v-2.6h-33.5v2.6h-5V95.1H382zm-5.2 39V99.6h-33.5v34.5h33.5zm-2.5-8.1v4.1h-28.1V126h11.5v-7.8h-9.4V114h9.4v-6.4H347v-4.3h26.4v4.3h-11v6.4h9.9v4.2h-9.9v7.8h7.3c-1-1.6-3-4-4.7-5.8l3.1-1.7c1.8 1.6 3.9 4 4.9 5.5l-3.2 1.9 4.5.1zM37.2 41.6H8.3v-25H0v58.1h8.3V48.5h28.9v26.2h8.4V16.6h-8.4zm49.5-12c-3.4-2.1-7.4-3.1-11.8-3.1s-8.3 1-11.7 3.1c-3.4 2.1-6 5-7.9 8.7-1.9 3.7-2.8 7.9-2.8 12.8s.9 9.2 2.8 12.9c1.9 3.7 4.5 6.6 7.9 8.6 3.4 2.1 7.3 3.1 11.7 3.1 4.5 0 8.4-1 11.8-3.1 3.4-2.1 6-4.9 7.9-8.6 1.9-3.7 2.8-8 2.8-12.9s-.9-9.1-2.8-12.8c-1.9-3.7-4.5-6.6-7.9-8.7zm1 30.6c-1.2 2.6-2.9 4.6-5 5.9-2.2 1.4-4.7 2.1-7.7 2.1-2.9 0-5.4-.7-7.6-2.1-2.2-1.4-3.9-3.4-5.1-5.9-1.2-2.6-1.8-5.7-1.8-9.2 0-3.6.6-6.7 1.8-9.2 1.2-2.5 2.9-4.6 5.1-5.9 2.2-1.4 4.7-2.1 7.6-2.1 2.9 0 5.5.7 7.7 2.1 2.2 1.4 3.9 3.4 5 5.9 1.2 2.6 1.8 5.7 1.8 9.2 0 3.5-.6 6.6-1.8 9.2zm48 1.4-23-34.3h-8.2v47.4h8.2V40.4l23 34.3h8.2V27.3h-8.2zm99.9-15.9c-2.3-1.4-4.8-2.5-7.7-3.4-2.3-.8-4.5-1.5-6.4-2.1-2-.6-3.6-1.3-5-2.1s-2.5-1.7-3.3-2.8c-.8-1.1-1.2-2.5-1.2-4.3 0-1.8.4-3.3 1.3-4.6s2-2.2 3.5-2.9 3.2-1 5.1-.9c2.3 0 4.2.5 5.7 1.4 1.5.9 2.7 2.1 3.5 3.5.8 1.4 1.2 2.9 1.2 4.4h8.8c-.1-3.3-.9-6.1-2.5-8.6-1.6-2.4-3.8-4.3-6.6-5.7s-6.2-2.1-10-2.1-7.1.7-9.9 2-5 3.2-6.5 5.7-2.3 5.2-2.3 8.5c0 3.8 1.1 6.9 3.4 9.3 2.2 2.3 5.7 4.3 10.2 5.9 2.3.8 4.5 1.5 6.5 2.2 2.1.7 3.9 1.4 5.5 2.3 1.6.9 2.9 2 3.8 3.3.9 1.3 1.4 3 1.4 5.1 0 1.8-.4 3.3-1.3 4.7-.9 1.4-2.2 2.4-3.9 3.2s-3.7 1.2-6 1.2c-2.7 0-5-.5-6.9-1.5-1.9-1-3.3-2.4-4.2-4.2-1-1.8-1.5-3.7-1.5-5.8h-8.8c0 3.7 1 7 2.8 9.7 1.8 2.8 4.3 4.9 7.5 6.4s7 2.3 11.2 2.3c4.5 0 8.1-.8 11.1-2.4 3-1.6 5.2-3.6 6.7-6.1 1.5-2.5 2.2-5.2 2.2-8.1 0-3.3-.6-6.1-2-8.2-1.4-2.2-3.2-3.9-5.4-5.3zm44.5 1.5h-22V27.3H250v47.4h8.1V53.8h22v20.9h8.2V27.3h-8.2zm30.8-19.9-17.5 47.6h8.5l4-11.2h18.9l4 11.2h8.7L320 27.3h-9.1zm-2.7 29.8 7.2-20.4 7.2 20.4h-14.4zm65.6-29.8v34.3l-23-34.3h-8.2v47.4h8.2V40.4l23 34.3h8.2V27.3zM174.7 55.9h11.6c-.5 3.6-1.7 6.5-3.7 8.8-2.2 2.5-5.4 3.7-9.6 3.7-2.9 0-5.4-.7-7.5-2-2.1-1.3-3.8-3.3-4.9-5.9-1.2-2.6-1.8-5.7-1.8-9.2 0-3.5.6-6.7 1.7-9.3 1.1-2.6 2.8-4.6 5-6 2.2-1.4 4.9-2.1 7.9-2.1s5.5.7 7.4 2 3.1 3.2 3.8 5.5h8.8c-1-4.7-3.2-8.4-6.8-11-3.5-2.7-7.9-4-13.2-4-4.6 0-8.6 1.1-12.1 3.2-3.4 2.1-6 5-7.8 8.8-1.8 3.7-2.7 8-2.7 12.9s.9 9.2 2.7 12.8 4.3 6.5 7.5 8.5 6.9 3.1 11.2 3.1c2.4 0 4.4-.3 6.2-.9 1.7-.6 3.2-1.4 4.6-2.5 1.3-1.1 2.5-2.4 3.5-4v6.5h7.8v-26h-19.6v7.1z"/></svg>